<?xml version="1.0" encoding="UTF-8" standalone="no"?>
<svg
   width="644"
   height="1252"
   viewBox="0 0 644 1252"
   version="1.1"
   id="svg2"
   sodipodi:docname="logo.svg"
   inkscape:version="1.3-beta (cedbd6c, 2023-05-28)"
   xmlns:inkscape="http://www.inkscape.org/namespaces/inkscape"
   xmlns:sodipodi="http://sodipodi.sourceforge.net/DTD/sodipodi-0.dtd"
   xmlns="http://www.w3.org/2000/svg"
   xmlns:svg="http://www.w3.org/2000/svg">
  <defs
     id="defs2" />
  <sodipodi:namedview
     id="namedview2"
     pagecolor="#505050"
     bordercolor="#eeeeee"
     borderopacity="1"
     inkscape:showpageshadow="0"
     inkscape:pageopacity="0"
     inkscape:pagecheckerboard="0"
     inkscape:deskcolor="#505050"
     inkscape:zoom="0.39097436"
     inkscape:cx="182.87644"
     inkscape:cy="767.31374"
     inkscape:window-width="1680"
     inkscape:window-height="997"
     inkscape:window-x="0"
     inkscape:window-y="25"
     inkscape:window-maximized="1"
     inkscape:current-layer="svg2" />
  <path
     style="fill:#ffffff;fill-opacity:1"
     d="M 321.86234,7.3930645 640.02815,625.50606 321.86234,1244.6752 1.8482661,625.7701 Z"
     id="path3" />
  <path
     d="M 321 0.836 C 321 1.296, 313.986 15.358, 305.413 32.086 C 276.696 88.117, 266.789 107.410, 259.499 121.500 C 255.515 129.200, 247.522 144.725, 241.738 156 C 218.479 201.334, 195.353 246.321, 187.889 260.750 C 183.550 269.138, 176.452 282.863, 172.114 291.250 C 167.777 299.637, 155.573 323.375, 144.993 344 C 134.414 364.625, 121.820 389.150, 117.008 398.500 C 112.196 407.850, 103.416 424.950, 97.496 436.500 C 91.577 448.050, 83.478 463.800, 79.499 471.500 C 75.520 479.200, 67.420 494.950, 61.498 506.500 C 55.576 518.050, 47.703 533.350, 44.001 540.500 C 25.397 576.439, 20.507 585.910, 11.990 602.500 C 6.907 612.400, 2.131 621.388, 1.375 622.473 C -0.710 625.465, -0.340 627.232, 3.825 634.148 C 5.929 637.642, 14.536 654, 22.952 670.500 C 37.233 698.497, 42.007 707.798, 63.503 749.500 C 68.039 758.300, 75.573 772.925, 80.244 782 C 87.961 796.991, 109.208 838.252, 131.996 882.500 C 136.811 891.850, 146.037 909.850, 152.498 922.500 C 158.959 935.150, 167.509 951.800, 171.497 959.500 C 175.486 967.200, 183.140 982.050, 188.506 992.500 C 193.872 1002.950, 201.971 1018.700, 206.503 1027.500 C 211.036 1036.300, 218.906 1051.600, 223.992 1061.500 C 243.735 1099.930, 252.503 1116.953, 258.503 1128.500 C 261.932 1135.100, 270.957 1152.650, 278.559 1167.500 C 286.161 1182.350, 295.925 1201.250, 300.256 1209.500 C 304.587 1217.750, 311.138 1230.669, 314.815 1238.209 C 318.492 1245.750, 321.725 1251.912, 322 1251.903 C 322.275 1251.894, 327.100 1242.574, 332.721 1231.193 C 338.343 1219.812, 347.709 1201.275, 353.534 1190 C 359.359 1178.725, 368.545 1160.950, 373.946 1150.500 C 379.348 1140.050, 388.149 1122.950, 393.505 1112.500 C 398.860 1102.050, 406.507 1087.200, 410.497 1079.500 C 414.487 1071.800, 422.481 1056.275, 428.260 1045 C 446.929 1008.577, 473.062 957.819, 479.488 945.500 C 482.930 938.900, 492.610 920, 500.999 903.500 C 509.387 887, 517.484 871.250, 518.991 868.500 C 520.498 865.750, 527.480 852.250, 534.507 838.500 C 545.802 816.395, 559.106 790.529, 587.483 735.500 C 592.021 726.700, 600.574 710.050, 606.491 698.500 C 612.407 686.950, 620.519 671.200, 624.516 663.500 C 628.513 655.800, 634.108 645, 636.949 639.500 C 639.790 634, 642.763 629, 643.557 628.390 C 645.114 627.191, 645.606 622.507, 644.075 623.454 C 642.892 624.185, 637.541 614.171, 603.487 547.500 C 596.464 533.750, 589.938 521.150, 588.986 519.500 C 588.033 517.850, 581.509 505.250, 574.488 491.500 C 559.624 462.387, 529.749 404.260, 520.009 385.500 C 516.297 378.350, 507.065 360.350, 499.495 345.500 C 491.924 330.650, 482.925 313.100, 479.497 306.500 C 476.069 299.900, 469.097 286.400, 464.004 276.500 C 453.903 256.866, 443.046 235.826, 430.978 212.500 C 426.709 204.250, 414.337 180.175, 403.483 159 C 392.629 137.825, 379.560 112.400, 374.440 102.500 C 354.347 63.644, 340.599 36.695, 331.749 18.815 C 323.545 2.242, 321 -2.016, 321 0.836 M 316.152 53.120 C 313.393 58.829, 306.125 73.175, 300.001 85 C 293.877 96.825, 282.986 117.975, 275.797 132 C 268.609 146.025, 260.151 162.450, 257.003 168.500 C 253.854 174.550, 246.429 188.950, 240.502 200.500 C 234.576 212.050, 226.024 228.700, 221.497 237.500 C 216.971 246.300, 208.197 263.400, 202 275.500 C 195.803 287.600, 187.702 303.350, 183.998 310.500 C 180.295 317.650, 172.305 333.175, 166.242 345 C 160.180 356.825, 144.317 387.650, 130.992 413.500 C 117.667 439.350, 102.260 469.275, 96.755 480 C 91.250 490.725, 82.812 507.150, 78.005 516.500 C 73.197 525.850, 64.061 543.625, 57.702 556 C 51.342 568.375, 40.688 589.075, 34.026 602 L 21.912 625.500 25.543 633 C 27.540 637.125, 41.672 664.800, 56.947 694.500 C 72.223 724.200, 90.021 758.850, 96.498 771.500 C 109.506 796.902, 120.736 818.722, 130.981 838.500 C 134.685 845.650, 141.772 859.375, 146.730 869 C 155.168 885.380, 159.527 893.863, 184.501 942.500 C 189.867 952.950, 197.968 968.700, 202.502 977.500 C 207.037 986.300, 220.082 1011.725, 231.490 1034 C 242.898 1056.275, 255.043 1079.900, 258.478 1086.500 C 261.912 1093.100, 274.541 1117.625, 286.542 1141 C 316.907 1200.147, 320.755 1207.418, 321.889 1207.796 C 322.436 1207.979, 326.093 1201.725, 330.016 1193.899 C 333.938 1186.073, 339.081 1176.032, 341.444 1171.585 C 345.441 1164.064, 367.040 1122.163, 391.747 1074 C 401.607 1054.780, 405.401 1047.404, 427.372 1004.750 C 447.837 965.020, 453.350 954.297, 464.001 933.500 C 470.199 921.400, 478.073 906.100, 481.500 899.500 C 484.927 892.900, 493.254 876.700, 500.003 863.500 C 506.753 850.300, 514.625 835, 517.497 829.500 C 520.370 824, 529.366 806.450, 537.490 790.500 C 545.613 774.550, 554.167 757.900, 556.498 753.500 C 558.830 749.100, 565.582 736.050, 571.504 724.500 C 577.426 712.950, 584.627 699, 587.507 693.500 C 590.387 688, 598.711 671.800, 606.005 657.500 C 613.298 643.200, 619.944 630.320, 620.773 628.877 C 622.235 626.334, 621.878 625.470, 609.013 600.377 C 601.716 586.145, 591.021 565.275, 585.246 554 C 574.783 533.572, 566.375 517.223, 549.245 484 C 544.282 474.375, 528.646 444, 514.498 416.500 C 486.610 362.294, 475.896 341.491, 462.740 316 C 453.855 298.784, 426.320 245.221, 408.250 210 C 402.465 198.725, 390.310 175.100, 381.237 157.500 C 353.166 103.044, 348.645 94.249, 336.001 69.500 C 329.258 56.300, 323.161 44.879, 322.454 44.120 C 321.386 42.974, 320.316 44.502, 316.152 53.120 M 314.216 91.250 C 310.288 99.088, 295.553 127.775, 281.470 155 C 267.387 182.225, 249.885 216.200, 242.577 230.500 C 235.268 244.800, 221.752 271.125, 212.540 289 C 203.329 306.875, 191.280 330.275, 185.765 341 C 175.070 361.798, 164.229 382.810, 152.487 405.500 C 148.502 413.200, 140.409 428.950, 134.502 440.500 C 128.595 452.050, 119.766 469.206, 114.881 478.625 C 109.997 488.043, 106 496.031, 106 496.375 C 106 496.719, 152.800 497, 210 497 L 314 497 314.097 412.250 C 314.150 365.637, 314.109 325.712, 314.004 323.528 C 313.863 320.563, 310.130 312.571, 299.291 292.028 C 291.303 276.887, 282.048 259.325, 278.724 253 C 275.400 246.675, 268.702 234.157, 263.840 225.182 C 258.978 216.207, 255 208.670, 255 208.432 C 255 207.775, 387.583 207.916, 388.241 208.574 C 388.556 208.890, 387.127 212.152, 385.065 215.824 C 383.002 219.496, 378.256 228.350, 374.518 235.500 C 370.780 242.650, 366.734 250.300, 365.527 252.500 C 364.319 254.700, 355.876 270.675, 346.764 288 L 330.198 319.500 329.537 366.864 C 329.174 392.914, 329.198 432.852, 329.592 455.614 L 330.307 497 433.654 497 C 511.810 497, 537 496.715, 537 495.832 C 537 494.752, 518.218 456.930, 512.006 445.500 C 510.511 442.750, 502.409 427, 494.002 410.500 C 485.594 394, 472.766 369.025, 465.494 355 C 458.222 340.975, 447.429 320.050, 441.510 308.500 C 435.590 296.950, 427.264 280.750, 423.008 272.500 C 418.751 264.250, 409.067 245.350, 401.486 230.500 C 393.906 215.650, 387.385 203.050, 386.995 202.500 C 386.605 201.950, 379.607 188.450, 371.445 172.500 C 363.283 156.550, 351.275 133.150, 344.762 120.500 C 338.249 107.850, 330.586 92.888, 327.732 87.250 C 324.879 81.612, 322.277 77, 321.951 77 C 321.624 77, 318.144 83.412, 314.216 91.250 M 281.621 223.804 C 281.331 224.274, 283.946 229.845, 287.432 236.186 C 290.918 242.527, 298.130 256.098, 303.459 266.344 C 308.787 276.590, 313.451 285.161, 313.823 285.392 C 314.196 285.622, 314.377 271.791, 314.226 254.655 L 313.952 223.500 298.050 223.226 C 289.304 223.075, 281.911 223.335, 281.621 223.804 M 330.015 223.750 C 330.024 224.162, 329.911 238.113, 329.765 254.750 C 329.619 271.388, 329.796 285.001, 330.157 285 C 330.519 285, 333.105 280.613, 335.904 275.250 C 338.704 269.887, 342.923 261.900, 345.281 257.500 C 357.025 235.583, 363 224.153, 363 223.605 C 363 223.272, 355.575 223, 346.500 223 C 337.425 223, 330.007 223.338, 330.015 223.750 M 80 546.254 C 70.375 565.076, 57.230 590.760, 50.789 603.330 L 39.079 626.185 45.402 638.342 C 52.892 652.742, 66.443 679.086, 82.006 709.500 C 88.198 721.600, 94.349 733.413, 95.675 735.752 L 98.087 740.004 322.216 739.752 L 546.345 739.500 550.998 730.500 C 553.557 725.550, 561.657 709.800, 568.999 695.500 C 576.341 681.200, 587.219 660.086, 593.174 648.580 C 599.128 637.074, 604 626.991, 604 626.174 C 604 625.357, 601.211 619.246, 597.801 612.594 C 594.392 605.942, 585.604 588.800, 578.273 574.500 C 570.941 560.200, 560.799 540.288, 555.734 530.250 L 546.525 512 322.013 512.017 L 97.500 512.033 80 546.254 M 162 580.946 L 151.500 581.500 151.500 625.500 L 151.500 669.500 161.500 669.500 L 171.500 669.500 172 639.500 L 172.500 609.500 174.750 613.118 C 175.988 615.108, 177 616.989, 177 617.299 C 177 617.608, 180.375 623.803, 184.500 631.066 C 188.625 638.328, 192 644.454, 192 644.679 C 192 645.705, 205.390 668.585, 206.382 669.253 C 206.997 669.668, 212 669.893, 217.500 669.753 L 227.500 669.500 227.761 626.061 C 227.904 602.169, 227.645 582.245, 227.184 581.784 C 226.723 581.323, 222.199 580.845, 217.130 580.720 C 208.308 580.504, 207.890 580.591, 207.347 582.753 C 207.035 583.996, 206.945 594.910, 207.146 607.006 C 207.348 619.103, 207.247 629, 206.923 629 C 206.599 629, 204.540 625.737, 202.347 621.750 C 180.627 582.240, 178.971 579.767, 174.527 580.196 C 173.412 580.303, 167.775 580.641, 162 580.946 M 355.158 582.881 C 353.699 585.108, 331.215 650.181, 328.528 659.949 C 326.515 667.270, 327.747 668.299, 307.261 642.173 L 299.022 631.665 302.261 629.752 C 306.717 627.119, 310.915 622.314, 313.192 617.237 C 315.660 611.738, 315.923 598.686, 313.655 594.300 C 311.335 589.813, 305.853 585.463, 299.544 583.103 C 294.410 581.182, 291.864 581, 270.069 581 C 249.239 581, 246.137 581.201, 245.607 582.582 C 244.805 584.672, 244.842 661.409, 245.647 666.282 L 246.272 670.065 256.886 669.782 L 267.500 669.500 267.775 653.852 C 267.991 641.533, 268.363 637.943, 269.524 636.980 C 272.366 634.622, 276.589 637.714, 283.710 647.365 C 287.417 652.389, 292.874 659.538, 295.837 663.250 L 301.225 670 323.990 670 C 341.077 670, 347.016 669.686, 347.801 668.740 C 348.376 668.047, 349.874 663.985, 351.131 659.714 L 353.416 651.948 367.458 652.224 L 381.500 652.500 384 660.023 C 385.375 664.161, 386.864 668.099, 387.309 668.773 C 388.285 670.253, 406.705 670.472, 408.983 669.032 C 410.281 668.211, 410.241 667.494, 408.663 663.297 C 407.671 660.659, 401.563 642.750, 395.090 623.500 C 383.228 588.225, 380.888 582.228, 378.698 581.497 C 378.039 581.277, 372.824 580.963, 367.108 580.799 C 357.110 580.511, 356.658 580.590, 355.158 582.881 M 470.949 581.034 C 470.473 581.327, 469.951 595.727, 469.791 613.034 C 469.554 638.696, 469.221 645.053, 467.988 647.496 C 464.824 653.769, 453.357 656.061, 446.898 651.713 C 440.660 647.514, 440.534 646.772, 440.175 612.250 L 439.849 581 428.925 581 L 418 581 417.995 613.750 C 417.991 642.450, 418.207 647.108, 419.745 651.415 C 421.953 657.599, 428.663 665.151, 434.304 667.803 C 444.401 672.549, 465.057 672.722, 475.399 668.148 C 484.402 664.165, 490.340 655.621, 491.978 644.294 C 493.134 636.302, 493.216 585.413, 492.078 582.500 C 491.371 580.690, 490.370 580.500, 481.557 580.500 C 476.199 580.500, 471.426 580.740, 470.949 581.034 M 268.949 597.031 C 268.327 597.416, 268.042 602.098, 268.216 609.080 L 268.500 620.500 275.818 620.241 C 287.380 619.831, 292.026 616.317, 291.968 608.027 C 291.915 600.519, 288.820 598.203, 277.380 597.110 C 273.303 596.721, 269.509 596.685, 268.949 597.031 M 365.425 611.750 C 365.087 613.263, 363.701 618.325, 362.345 623 C 360.989 627.675, 359.651 632.288, 359.372 633.250 C 358.917 634.820, 359.747 635, 367.433 635 C 372.145 635, 376 634.757, 376 634.459 C 376 633.605, 372.063 621.075, 369.807 614.750 C 367.544 608.406, 366.353 607.591, 365.425 611.750 M 106 755.493 C 106 755.939, 134.309 811.362, 152.484 846.500 C 162.893 866.625, 176.202 892.481, 188 915.500 C 193.638 926.500, 200.161 939.100, 202.495 943.500 C 204.829 947.900, 214.058 965.900, 223.004 983.500 C 231.951 1001.100, 240.049 1016.850, 241.002 1018.500 C 241.954 1020.150, 249.127 1034, 256.941 1049.278 C 264.756 1064.555, 276.066 1086.605, 282.076 1098.278 C 288.086 1109.950, 299.406 1131.950, 307.231 1147.167 C 315.056 1162.384, 321.783 1174.634, 322.179 1174.389 C 322.575 1174.145, 327.932 1164.169, 334.084 1152.222 C 340.235 1140.275, 348.979 1123.300, 353.515 1114.500 C 358.052 1105.700, 366.368 1089.500, 371.996 1078.500 C 377.624 1067.500, 384.593 1054, 387.483 1048.500 C 390.372 1043, 398.707 1026.800, 406.003 1012.500 C 413.300 998.200, 422.072 981.100, 425.498 974.500 C 428.923 967.900, 437.246 951.700, 443.993 938.500 C 460.731 905.753, 472.330 883.237, 477.991 872.500 C 480.601 867.550, 489.161 850.900, 497.012 835.500 C 504.863 820.100, 512.516 805.250, 514.018 802.500 C 519.541 792.391, 537 757.124, 537 756.079 C 537 755.314, 506.865 755, 433.495 755 L 329.990 755 330.245 853.750 L 330.500 952.500 366.294 952.763 L 402.087 953.025 401.794 960.263 L 401.500 967.500 322.333 967.500 C 278.791 967.500, 242.965 967.275, 242.720 967 C 242.474 966.725, 241.975 963.468, 241.610 959.763 L 240.947 953.025 277.223 952.763 L 313.500 952.500 313.755 853.750 L 314.010 755 210.005 755 C 152.802 755, 106 755.222, 106 755.493 M 264.667 1005.667 C 264.300 1006.033, 264 1009.408, 264 1013.167 L 264 1020 321.375 1020 L 378.750 1020 379.375 1016.875 C 380.167 1012.915, 380.175 1008.619, 379.393 1006.582 C 378.849 1005.165, 372.864 1005, 322.060 1005 C 290.860 1005, 265.033 1005.300, 264.667 1005.667 M 287.250 1048.662 C 285.258 1049.466, 285.554 1062.615, 287.582 1063.393 C 288.452 1063.727, 303.940 1064, 322 1064 C 340.060 1064, 355.548 1063.727, 356.418 1063.393 C 358.713 1062.513, 358.713 1049.487, 356.418 1048.607 C 354.531 1047.883, 289.052 1047.935, 287.250 1048.662 M 313.667 1094.667 C 312.717 1095.616, 312.869 1106.244, 313.853 1107.797 C 314.437 1108.716, 316.834 1109.008, 322.088 1108.797 L 329.500 1108.500 329.794 1101.250 L 330.088 1094 322.210 1094 C 317.878 1094, 314.033 1094.300, 313.667 1094.667"
     stroke="none"
     fill="#07357a"
     fill-rule="evenodd"
     id="path2" />
</svg>
