<?xml version="1.0" standalone="no"?>
<!DOCTYPE svg PUBLIC "-//W3C//DTD SVG 20010904//EN"
 "http://www.w3.org/TR/2001/REC-SVG-20010904/DTD/svg10.dtd">
<svg version="1.0" xmlns="http://www.w3.org/2000/svg"
 width="1252.000000pt" height="1252.000000pt" viewBox="0 0 1252.000000 1252.000000"
 preserveAspectRatio="xMidYMid meet">
<metadata>
Created by potrace 1.14, written by Peter Selinger 2001-2017
</metadata>
<g transform="translate(0.000000,1252.000000) scale(0.100000,-0.100000)"
fill="#000000" stroke="none">
<path d="M6123 12257 c-73 -144 -387 -757 -699 -1362 -311 -605 -822 -1599
-1136 -2210 -642 -1250 -1207 -2344 -1234 -2393 -19 -32 -19 -32 9 -85 81
-148 597 -1149 1577 -3057 270 -526 846 -1646 1140 -2215 136 -264 298 -580
360 -702 63 -123 117 -223 121 -223 3 0 73 132 154 293 82 160 341 668 578
1127 1102 2142 1387 2695 2032 3950 384 746 431 836 446 845 19 12 8 55 -29
116 -22 35 -132 246 -247 469 -114 223 -229 446 -255 495 -26 50 -175 338
-330 640 -735 1432 -862 1679 -1000 1945 -288 557 -1069 2079 -1198 2335 -72
143 -137 268 -144 277 -11 16 -29 -14 -145 -245z m260 -399 c63 -123 275 -533
470 -913 195 -379 751 -1459 1234 -2400 1153 -2240 1163 -2260 1163 -2286 0
-21 -119 -259 -430 -859 -76 -146 -303 -587 -505 -980 -665 -1295 -1675 -3259
-1860 -3615 -106 -205 -187 -350 -195 -350 -17 0 -38 39 -614 1160 -263 512
-686 1333 -939 1825 -253 492 -640 1244 -859 1670 -219 426 -442 861 -494 965
l-96 190 502 975 c276 536 750 1457 1052 2045 303 589 703 1365 888 1725 186
360 381 743 435 850 98 196 111 220 125 220 4 0 59 -100 123 -222z"/>
<path d="M6224 11688 c-29 -59 -1029 -2001 -1880 -3653 -203 -393 -239 -471
-226 -477 10 -4 477 -7 1040 -7 l1022 -1 0 878 0 877 -54 110 c-29 61 -133
261 -231 445 -97 184 -204 385 -236 446 -33 61 -59 116 -59 122 0 15 1306 17
1315 2 3 -5 -101 -211 -231 -457 -130 -247 -260 -493 -289 -548 l-53 -100 -6
-453 c-4 -249 -4 -648 0 -887 l7 -435 976 1 c537 1 1002 4 1034 8 l59 6 -87
175 c-48 96 -163 321 -255 500 -92 179 -331 642 -530 1030 -199 388 -481 935
-625 1215 -145 281 -349 676 -453 880 -105 203 -195 371 -201 373 -5 2 -22
-21 -37 -50z"/>
<path d="M5865 10280 c-4 -6 4 -32 17 -58 64 -126 270 -511 283 -528 13 -17
14 16 12 286 l-2 305 -152 3 c-101 2 -154 -1 -158 -8z"/>
<path d="M6347 10283 c-4 -3 -7 -141 -7 -307 0 -201 3 -297 10 -290 19 19 318
589 313 596 -5 10 -307 11 -316 1z"/>
<path d="M3723 6829 l-291 -570 196 -382 c108 -210 239 -465 293 -567 l96
-185 2004 -3 c1102 -2 2112 0 2245 3 l241 7 287 559 c226 438 286 563 281 581
-4 13 -134 272 -289 575 l-281 553 -2245 0 -2245 0 -292 -571z m1115 -143 c17
-19 65 -97 108 -173 42 -76 96 -169 118 -208 l41 -70 5 235 5 235 93 3 c92 3
92 3 102 -24 6 -16 9 -182 8 -442 l-3 -417 -99 -3 c-63 -2 -103 1 -112 9 -19
15 -155 256 -299 527 -16 28 -32 52 -36 52 -5 0 -10 -132 -11 -292 l-3 -293
-100 0 -100 0 0 440 0 440 90 6 c174 10 160 12 193 -25z m3117 13 c14 -14 19
-454 7 -577 -12 -112 -35 -171 -90 -228 -48 -50 -105 -73 -202 -82 -175 -17
-307 19 -374 101 -73 91 -71 75 -74 455 l-3 342 109 0 109 0 5 -307 c5 -336 9
-362 63 -397 67 -44 186 -21 214 42 9 19 14 112 17 302 3 151 7 294 10 317 5
42 5 42 52 46 62 6 145 -2 157 -14z m-1955 0 c56 -12 133 -60 164 -102 26 -35
35 -159 16 -221 -16 -53 -61 -115 -105 -145 -19 -13 -35 -28 -35 -33 0 -10
219 -287 243 -307 10 -8 20 -11 23 -8 4 3 48 129 99 279 106 311 161 468 181
516 l13 33 118 -3 118 -3 22 -45 c34 -72 287 -820 279 -828 -10 -10 -149 -16
-190 -8 -33 6 -36 11 -63 86 -20 57 -33 80 -48 84 -11 3 -74 6 -140 6 l-121 0
-22 -72 c-12 -40 -26 -80 -31 -88 -9 -12 -49 -16 -240 -18 l-230 -3 -78 102
c-122 161 -173 219 -199 231 -43 20 -49 1 -54 -170 l-5 -157 -106 -3 -106 -3
-7 38 c-3 21 -6 217 -6 435 0 368 1 398 18 407 23 14 427 14 492 0z"/>
<path d="M5725 6528 c-3 -13 -5 -63 -3 -113 l3 -90 57 -3 c118 -6 178 34 178
119 0 72 -62 109 -179 109 -44 0 -51 -3 -56 -22z"/>
<path d="M6668 6309 c-19 -68 -33 -127 -31 -131 6 -10 150 -10 157 0 6 10 -60
212 -77 236 -12 16 -17 4 -49 -105z"/>
<path d="M4110 4960 c0 -15 149 -309 531 -1052 188 -365 425 -825 526 -1023
102 -198 259 -502 348 -675 90 -173 283 -548 430 -834 146 -285 278 -537 292
-559 l25 -39 17 28 c19 31 295 567 1031 1999 252 490 526 1023 610 1185 84
162 229 446 323 630 l170 335 -59 6 c-32 4 -499 7 -1037 8 l-978 1 3 -979 c2
-539 7 -983 11 -988 5 -4 166 -9 358 -11 l350 -3 -3 -72 -3 -72 -790 3 c-434
2 -793 6 -796 10 -4 4 -10 35 -14 69 l-7 62 355 3 c196 2 359 7 364 11 4 5 9
449 11 988 l3 979 -1036 0 c-690 0 -1035 -3 -1035 -10z m2700 -2499 c29 -8 35
-32 25 -98 l-6 -43 -575 0 -574 0 0 69 c0 46 4 71 13 74 19 8 1089 6 1117 -2z
m-202 -433 c16 -16 16 -120 0 -136 -9 -9 -100 -12 -350 -12 -323 0 -338 1
-348 19 -14 27 -13 114 2 129 17 17 679 17 696 0z m-270 -520 l-3 -73 -68 -3
c-42 -2 -74 2 -83 9 -14 12 -20 119 -7 132 3 4 42 7 85 7 l79 0 -3 -72z"/>
</g>
</svg>
